# xmcd
#
# Track frame offsets:
#   150
#   2204
#   17674
#   38213
#   48984
#   61732
#   73721
#   86510
#   99390
#   112437
#   123885
#   139487
#   155214
#   169050
#
# Disc length: 2429 seconds
#
# Revision: 0
# Processed by: cddbd v1.5.1PL2 Copyright (c) Steve Scherf et al.
# Submitted via: uFREEDB ActiveX Control 1.5
#
DISCID=c1097b0e
DTITLE=Betinho dos Teclados - Uma Explosão de Forró
DYEAR=2005
DGENRE=Country
TTITLE0=Abertura
TTITLE1=Saudades do Meu Sertão
TTITLE2=Não Dá Prazer
TTITLE3=Pra Dançar
TTITLE4=Potiguar
TTITLE5=Vaqueiro do Nordeste
TTITLE6=Vem Amor
TTITLE7=Não Dá Mais 
TTITLE8=69
TTITLE9=All Revoir
TTITLE10=Tô Com Saudades
TTITLE11=Não Quer Fazer Amor
TTITLE12=Paixão Sem Fim
TTITLE13=Betinho Regaae
EXTD=
EXTT0=
EXTT1=
EXTT2=
EXTT3=
EXTT4=
EXTT5=
EXTT6=
EXTT7=
EXTT8=
EXTT9=
EXTT10=
EXTT11=
EXTT12=
EXTT13=
PLAYORDER=
